<svg preserveAspectRatio="none" width="100%" height="100%" overflow="visible" style="display: block;" viewBox="0 0 46 50" fill="none" xmlns="http://www.w3.org/2000/svg">
<g id="django">
<path id="Vector" d="M20.691 0H30.2948V37.523C25.3756 38.3163 21.7541 38.6283 17.8358 38.6283C6.10595 38.6179 0 34.1508 0 25.5713C0 17.305 6.47674 11.9402 16.5133 11.9402C18.0707 11.9402 19.2572 12.0447 20.691 12.3577V0ZM21.0275 19.1198C19.9027 18.8066 18.9758 18.7023 17.7891 18.7023C12.9317 18.7023 10.1259 21.228 10.1259 25.6544C10.1259 29.9641 12.8082 32.3437 17.7275 32.3437C18.7903 32.3437 19.6555 32.2927 21.0275 32.1361V19.1198V19.1198Z" fill="var(--fill-0, #2BA977)"/>
<path id="Vector_2" d="M46 12.9476V31.7349C46 38.2049 45.4315 41.3162 43.7628 43.9987C42.2053 46.5776 40.1536 48.2038 35.9141 50L27.0024 46.4201C31.2419 44.7406 33.2937 43.2565 34.604 40.9917C35.9757 38.6757 36.4084 35.9932 36.4084 28.9376V12.9478H46V12.9476ZM35.4406 0H45.0444V8.31853H35.4406V0Z" fill="var(--fill-0, #2BA977)"/>
</g>
</svg>
