<svg preserveAspectRatio="none" width="100%" height="100%" overflow="visible" style="display: block;" viewBox="0 0 50 60" fill="none" xmlns="http://www.w3.org/2000/svg">
<g id="firebase">
<path id="Vector" d="M32.8298 21.6718L25.9039 27.2591L19.4749 16.0188L22.7961 9.55582C23.6355 8.26662 25.0083 8.24959 25.8478 9.55582L32.8298 21.6718Z" fill="var(--fill-0, #FFA000)"/>
<path id="Vector_2" d="M25.9068 27.2567L0 48.1344L19.4779 16.0188L25.9068 27.2567Z" fill="var(--fill-0, #F57F17)"/>
<path id="Vector_3" d="M40.4239 13.1267C41.6648 12.1026 42.9422 12.448 43.265 13.9027L50 47.8523L27.6614 59.4722C26.8782 59.8516 24.8007 60 24.8007 60C24.8007 60 22.9113 59.8005 22.187 59.4551L0 48.1345L40.4239 13.1267Z" fill="var(--fill-0, #FFCA28)"/>
<path id="Vector_4" d="M19.4778 16.0189L0 48.1344L8.68052 1.19311C9.00618 -0.261497 9.95789 -0.409876 10.817 0.87932L19.4778 16.0189Z" fill="var(--fill-0, #FFA000)"/>
</g>
</svg>
