<svg preserveAspectRatio="none" width="100%" height="100%" overflow="visible" style="display: block;" viewBox="0 0 50 43" fill="none" xmlns="http://www.w3.org/2000/svg">
<g id="gcloud" clip-path="url(#clip0_0_4)">
<path id="Vector" d="M31.7266 11.8414H33.2523L37.599 7.19628L37.8128 5.22534C29.725 -2.40308 17.3786 -1.58111 10.2402 7.0619C8.25544 9.46286 6.81561 12.3185 6.03177 15.4093C6.5159 15.1965 7.05244 15.1629 7.55753 15.3107L16.2489 13.7788C16.2489 13.7788 16.6911 12.9971 16.9196 13.0464C20.7864 8.50875 27.2939 7.98018 31.758 11.8414H31.7266Z" fill="var(--fill-0, #EA4335)"/>
<path id="Vector_2" d="M43.7901 15.4091C42.7904 11.4785 40.7406 7.94421 37.8882 5.24089L31.7894 11.7584C34.3652 14.0071 35.8322 17.3957 35.7694 20.9502V22.1081C38.7685 22.1081 41.1975 24.7061 41.1975 27.9089C41.1975 31.1139 38.7664 33.7097 35.7694 33.7097H24.9109L23.8274 34.8833V41.8421L24.9109 43H35.7694C41.9939 43.0515 47.5164 38.7401 49.3649 32.3883C51.2092 26.0343 48.9458 19.136 43.7901 15.4091Z" fill="var(--fill-0, #4285F4)"/>
<path id="Vector_3" d="M14.0378 42.935H24.8963V33.647H14.0378C13.2645 33.647 12.4995 33.4701 11.7953 33.1251L10.2695 33.6291L5.89346 38.2742L5.51202 39.9047C7.96622 41.8846 10.9611 42.9485 14.0378 42.935Z" fill="var(--fill-0, #34A853)"/>
<path id="Vector_4" d="M14.0378 12.8021C8.00604 12.8402 2.66379 16.968 0.739825 23.0756C-1.18414 29.1833 0.733537 35.9248 5.51411 39.8532L11.8121 33.1229C9.0791 31.8037 7.86562 28.368 9.10006 25.4475C10.3345 22.5269 13.5495 21.2301 16.2824 22.5493C17.4854 23.1316 18.4495 24.1619 18.9944 25.4475L25.2924 18.7172C22.6118 14.9746 18.4474 12.7865 14.0378 12.8021Z" fill="var(--fill-0, #FBBC05)"/>
</g>
<defs>
<clipPath id="clip0_0_4">
<rect width="50" height="43" fill="white"/>
</clipPath>
</defs>
</svg>
