<svg preserveAspectRatio="none" width="100%" height="100%" overflow="visible" style="display: block;" viewBox="0 0 35 50" fill="none" xmlns="http://www.w3.org/2000/svg">
<g id="java">
<path id="Vector" d="M11.2721 38.6679C11.2721 38.6679 9.45869 39.779 12.5628 40.1549C16.3234 40.6069 18.2452 40.5422 22.3894 39.7157C22.3894 39.7157 23.479 40.4355 25.0005 41.059C15.7105 45.2539 3.97521 40.8159 11.2721 38.6679V38.6679ZM10.1369 33.1937C10.1369 33.1937 8.10293 34.78 11.2093 35.1185C15.2265 35.5551 18.3988 35.5909 23.8884 34.4772C23.8884 34.4772 24.6476 35.2881 25.8415 35.7317C14.6092 39.1922 2.09855 36.0046 10.1369 33.1937" fill="var(--fill-0, #5382A1)"/>
<path id="Vector_2" d="M19.707 23.9077C21.9962 26.6843 19.1056 29.183 19.1056 29.183C19.1056 29.183 24.9179 26.0217 22.2486 22.0629C19.7555 18.3713 17.8436 16.5368 28.1937 10.2125C28.1937 10.2125 11.9475 14.4875 19.707 23.9076" fill="var(--fill-0, #E76F00)"/>
<path id="Vector_3" d="M31.9939 42.717C31.9939 42.717 33.3359 43.8819 30.5159 44.7832C25.1536 46.4948 8.19721 47.0117 3.48677 44.8514C1.79355 44.0755 4.96893 42.9984 5.96771 42.7723C7.00937 42.5343 7.60473 42.5787 7.60473 42.5787C5.72162 41.181 -4.56683 45.3231 2.37875 46.5092C21.3202 49.7456 36.907 45.0519 31.9939 42.717ZM12.1441 27.5218C12.1441 27.5218 3.51919 29.6803 9.08992 30.4639C11.442 30.7957 16.1309 30.7207 20.4985 30.3351C24.0679 30.018 27.6521 29.3434 27.6521 29.3434C27.6521 29.3434 26.3935 29.9114 25.4829 30.5664C16.7243 32.9935 -0.195771 31.8644 4.6753 29.3818C8.79478 27.2838 12.1443 27.5218 12.1443 27.5218H12.1441ZM27.6165 36.6338C36.5202 31.7592 32.4035 27.0748 29.5301 27.706C28.8258 27.8603 28.5118 27.994 28.5118 27.994C28.5118 27.994 28.7733 27.5626 29.2726 27.3759C34.957 25.2702 39.3287 33.586 27.4376 36.8795C27.4376 36.8796 27.5754 36.7499 27.6165 36.6338" fill="var(--fill-0, #5382A1)"/>
<path id="Vector_4" d="M22.2486 0.000144766C22.2486 0.000144766 27.1796 5.1973 17.5718 13.1886C9.86745 19.5992 15.8149 23.2543 17.5686 27.4304C13.0714 23.1554 9.77099 19.3921 11.9852 15.8896C15.235 10.7478 24.238 8.25509 22.2486 0" fill="var(--fill-0, #E76F00)"/>
<path id="Vector_5" d="M13.0191 49.8428C21.5654 50.4193 34.6892 49.523 35 45.2624C35 45.2624 34.4026 46.8777 27.9369 48.1603C20.6425 49.6065 11.6459 49.4377 6.30981 48.5108C6.30994 48.5108 7.40216 49.4634 13.0192 49.8428" fill="var(--fill-0, #5382A1)"/>
</g>
</svg>
