<svg preserveAspectRatio="none" width="100%" height="100%" overflow="visible" style="display: block;" viewBox="0 0 40 50" fill="none" xmlns="http://www.w3.org/2000/svg">
<g id="nodejs">
<path id="Vector" d="M18.1953 0.53343C19.2882 -0.176206 20.7118 -0.179412 21.8038 0.53343C27.2977 4.05472 32.7933 7.57049 38.2862 11.0939C39.3193 11.754 40.0104 13.0583 39.9999 14.4086V35.5941C40.0076 37.0003 39.2482 38.3357 38.1582 38.9809C32.6824 42.4828 27.2095 45.9889 21.7346 49.4908C20.619 50.2143 19.1669 50.1586 18.0861 49.3758C16.4445 48.2963 14.8 47.2221 13.1582 46.1437C12.8227 45.9168 12.4446 45.7363 12.2077 45.3673C12.4171 45.0471 12.7915 45.0072 13.0958 44.8674C13.781 44.6202 14.4104 44.2235 15.0399 43.8385C15.1991 43.7149 15.3935 43.7623 15.5461 43.8729C16.9499 44.7859 18.3413 45.7254 19.7498 46.6297C20.0502 46.8264 20.3545 46.5652 20.6113 46.4028C25.9848 42.9579 31.3648 39.526 36.7373 36.08C36.9364 35.9714 37.0464 35.7317 37.0303 35.4844C37.034 28.4958 37.0312 21.5059 37.0321 14.5173C37.0549 14.2366 36.9117 13.9786 36.688 13.8637C31.2312 10.3779 25.7772 6.88667 20.3214 3.39993C20.2268 3.32622 20.1149 3.28666 20.0002 3.28647C19.8854 3.28628 19.7734 3.32546 19.6787 3.39886C14.2228 6.88667 8.76974 10.3811 3.31388 13.8667C3.09095 13.9818 2.94134 14.2355 2.96787 14.5173C2.96881 21.5059 2.96787 28.4958 2.96787 35.4854C2.95841 35.6061 2.98178 35.7272 3.03483 35.8324C3.08788 35.9375 3.16806 36.0217 3.26458 36.0736C4.7205 37.0101 6.17831 37.9401 7.63518 38.8734C8.45592 39.3745 9.46364 39.6722 10.3679 39.2883C11.1659 38.9636 11.7252 38.04 11.71 37.0789C11.7175 30.131 11.7062 23.1821 11.7157 16.2353C11.6957 15.9269 11.9537 15.6721 12.218 15.7011C12.9176 15.6958 13.6181 15.6904 14.3176 15.7033C14.6096 15.6958 14.8106 16.0279 14.7744 16.3386C14.7716 23.3305 14.782 30.3225 14.7697 37.3143C14.7716 39.1777 14.0967 41.2053 12.5772 42.117C10.7053 43.217 8.39155 42.9837 6.54221 41.929C4.94123 41.0226 3.41341 39.9529 1.84084 38.9818C0.748035 38.3402 -0.00755738 36.9995 0.000135121 35.5942V14.4086C-0.0113251 13.0303 0.707217 11.7024 1.77255 11.0519C7.24741 7.54716 12.7213 4.03976 18.1953 0.53343Z" fill="var(--fill-0, #8CC84B)"/>
<path id="Vector_2" d="M22.9715 15.2087C25.3593 15.0344 27.9156 15.1054 30.0643 16.4397C31.7279 17.4623 32.6502 19.6083 32.6796 21.7048C32.6331 21.9876 32.3725 22.1435 32.1345 22.1241C31.4417 22.1231 30.7488 22.1348 30.056 22.1188C29.7621 22.1316 29.5913 21.8243 29.5544 21.5295C29.3553 20.5264 28.8731 19.5329 28.0407 19.0491C26.763 18.3234 25.2815 18.36 23.8882 18.3751C22.871 18.4363 21.7773 18.5362 20.9156 19.2147C20.254 19.7286 20.0531 20.7661 20.2892 21.6017C20.5118 22.2016 21.1223 22.3952 21.6219 22.5736C24.4995 23.4273 27.5489 23.3424 30.3715 24.4658C31.5402 24.9239 32.6834 25.8142 33.0834 27.2022C33.6066 29.0624 33.3773 31.2858 32.2105 32.7792C31.2643 34.0081 29.8863 34.6769 28.5118 35.0402C26.6834 35.5027 24.7858 35.5144 22.929 35.3091C21.1829 35.0833 19.3659 34.563 18.018 33.2135C16.8654 32.0783 16.3024 30.3094 16.3583 28.6022C16.3717 28.3139 16.6247 28.1129 16.8682 28.1365C17.5659 28.1301 18.2635 28.128 18.9612 28.1376C19.2399 28.115 19.4465 28.3882 19.4607 28.6861C19.5895 29.6418 19.9061 30.6449 20.6408 31.2116C22.0588 32.2492 23.8379 32.1782 25.4615 32.2072C26.8066 32.1395 28.3165 32.119 29.4142 31.1106C29.9933 30.5354 30.1649 29.5731 30.0084 28.7452C29.8389 28.0463 29.1943 27.7206 28.6407 27.5076C25.8 26.4883 22.7166 26.8581 19.9033 25.7054C18.7612 25.2476 17.6568 24.382 17.218 23.051C16.6057 21.1673 16.8863 18.8374 18.1753 17.3944C19.4322 15.9591 21.2465 15.4064 22.9715 15.2085V15.2087Z" fill="var(--fill-0, #8CC84B)"/>
</g>
</svg>
