<svg preserveAspectRatio="none" width="100%" height="100%" overflow="visible" style="display: block;" viewBox="0 0 50 50" fill="none" xmlns="http://www.w3.org/2000/svg">
<g id="postgresql">
<path id="Vector" d="M49.8677 29.9511C49.5672 29.0682 48.7799 28.4534 47.7619 28.3058C47.2818 28.2363 46.732 28.2659 46.0815 28.396C44.9475 28.6229 44.1062 28.7093 43.4922 28.726C45.8097 24.9309 47.6941 20.6031 48.7789 16.5292C50.5331 9.94186 49.5957 6.94089 48.5003 5.5835C45.6014 1.99062 41.3719 0.0604883 36.2695 0.00142988C33.5475 -0.0308529 31.158 0.490419 29.9115 0.865278C28.7509 0.666644 27.503 0.555744 26.1936 0.535235C23.7391 0.497255 21.5704 1.01625 19.7173 2.08291C18.6914 1.74641 17.0449 1.27204 15.1435 0.969343C10.6714 0.257223 7.06708 0.812107 4.43068 2.61861C1.23827 4.80586 -0.241644 8.60611 0.032059 13.9138C0.118986 15.5989 1.09085 20.7262 2.62108 25.5887C3.50053 28.3837 4.43832 30.7046 5.40842 32.4877C6.78418 35.0162 8.25626 36.5052 9.90885 37.04C10.8351 37.3393 12.518 37.5489 14.2881 36.119C14.5125 36.3826 14.8118 36.6444 15.209 36.8877C15.7136 37.1963 16.3305 37.4485 16.9466 37.5979C19.167 38.1363 21.2468 38.0016 23.0211 37.247C23.0321 37.5531 23.0405 37.8455 23.0476 38.0981C23.0593 38.5077 23.0711 38.9094 23.0865 39.285C23.1917 41.8247 23.3698 43.7994 23.8976 45.1811C23.9266 45.2571 23.9656 45.3729 24.0067 45.4958C24.27 46.2778 24.7103 47.587 25.8306 48.6122C26.9906 49.6743 28.3938 50 29.6789 50C30.3234 50 30.9383 49.918 31.4777 49.8059C33.4003 49.4062 35.5838 48.7974 37.1634 46.6158C38.6568 44.5535 39.3828 41.4474 39.5142 36.5531C39.5312 36.4147 39.5469 36.2825 39.5619 36.1566L39.5933 35.8979L39.9451 35.928L40.0357 35.9338C41.9939 36.0204 44.3883 35.6177 45.8589 34.9551C47.0208 34.4321 50.7444 32.5253 49.8677 29.9511" fill="var(--fill-0, black)"/>
<path id="Vector_2" d="M46.5195 30.4517C40.6969 31.6167 40.2966 29.7046 40.2966 29.7046C46.4441 20.8567 49.0141 9.62551 46.7965 6.87673C40.7461 -0.621427 30.2727 2.92474 30.0979 3.01665L30.0417 3.02653C28.8913 2.79485 27.604 2.65699 26.157 2.63401C23.5226 2.59223 21.524 3.30397 20.0075 4.41944C20.0075 4.41944 1.32403 -3.04624 2.19311 13.8088C2.37792 17.3945 7.49175 40.9402 13.5911 33.8283C15.8205 31.2276 17.9747 29.0288 17.9747 29.0288C19.0444 29.7181 20.3252 30.0698 21.6679 29.9435L21.7723 29.8577C21.7398 30.1805 21.7546 30.4963 21.814 30.8702C20.2426 32.5731 20.7045 32.872 17.5633 33.4992C14.3848 34.1346 16.252 35.2656 17.4711 35.5615C18.9491 35.9198 22.3682 36.4276 24.6785 33.2907L24.5864 33.6487C25.202 34.127 25.6343 36.7598 25.5618 39.1466C25.4894 41.5332 25.441 43.1719 25.926 44.4518C26.4113 45.7317 26.8947 48.6115 31.0241 47.7534C34.4744 47.0361 36.2625 45.1776 36.5113 42.0773C36.6877 39.8733 37.0873 40.1992 37.1124 38.2286L37.4329 37.2958C37.8023 34.3082 37.4916 33.3442 39.6172 33.7926L40.1341 33.8367C41.6983 33.9056 43.7462 33.5924 44.9481 33.0507C47.536 31.8858 49.0709 29.9407 46.5191 30.4517H46.5195" fill="var(--fill-0, #336791)"/>
<path id="Vector_3" d="M21.1011 15.4123C20.5764 15.3415 20.1013 15.407 19.8608 15.5836C19.7258 15.6829 19.6839 15.798 19.6725 15.8772C19.6424 16.087 19.7939 16.319 19.8871 16.4387C20.1506 16.7775 20.5355 17.0103 20.9165 17.0615C20.9717 17.0691 21.0267 17.0726 21.0814 17.0726C21.7167 17.0726 22.2944 16.5927 22.3453 16.2385C22.409 15.7949 21.7451 15.4993 21.1011 15.4125V15.4123ZM38.4834 15.4263C38.4333 15.0786 37.7954 14.9795 37.1901 15.0612C36.5855 15.1428 35.9993 15.4075 36.0483 15.756C36.0874 16.027 36.592 16.4896 37.1891 16.4896C37.2396 16.4896 37.2905 16.4863 37.3418 16.4793C37.7404 16.4258 38.0329 16.1802 38.1719 16.0388C38.3834 15.823 38.5059 15.5826 38.4834 15.4263" fill="var(--fill-0, white)"/>
<path id="Vector_4" d="M48.457 30.3193C48.235 29.6682 47.5204 29.4587 46.3331 29.6965C42.8081 30.4021 41.5457 29.9133 41.1312 29.6173C43.8712 25.5686 46.1252 20.6746 47.3412 16.1084C47.9172 13.9455 48.2354 11.9367 48.2614 10.2994C48.2902 8.50242 47.9746 7.18187 47.3238 6.37517C44.6999 3.12316 40.8489 1.37874 36.1873 1.33089C32.9826 1.29595 30.2749 2.09143 29.75 2.31514C28.6446 2.04852 27.4396 1.88482 26.1277 1.86394C23.7219 1.82615 21.6423 2.38483 19.9206 3.52365C19.1727 3.25362 17.2399 2.61005 14.8763 2.24069C10.7899 1.60263 7.54266 2.08612 5.22538 3.67842C2.46035 5.57855 1.18385 8.97508 1.43112 13.7734C1.51433 15.3878 2.4627 20.354 3.95926 25.11C5.92922 31.3699 8.07068 34.9136 10.3237 35.6426C10.5875 35.7279 10.8915 35.7875 11.2269 35.7875C12.0488 35.7875 13.0565 35.4282 14.1049 34.2056C15.3836 32.7177 16.7064 31.2659 18.0716 29.852C18.9573 30.3131 19.9304 30.5706 20.9255 30.5964C20.9275 30.6217 20.93 30.6469 20.9324 30.672C20.7611 30.8701 20.5933 31.0711 20.4292 31.2749C19.7397 32.124 19.5962 32.3007 17.3766 32.744C16.7452 32.8704 15.0683 33.2056 15.0437 34.3458C15.017 35.5915 17.0259 36.1147 17.2548 36.1701C18.0524 36.3638 18.8209 36.4593 19.5537 36.4593C21.3359 36.4593 22.9043 35.8912 24.1577 34.7918C24.1191 39.2328 24.31 43.6089 24.8598 44.9421C25.3101 46.0337 26.41 48.7012 29.8843 48.701C30.3941 48.701 30.9553 48.6435 31.5726 48.5151C35.1986 47.7612 36.7733 46.2067 37.3824 42.7796C37.7084 40.948 38.2677 36.5744 38.5308 34.2284C39.0861 34.3965 39.8009 34.4734 40.5736 34.4732C42.1853 34.4732 44.045 34.1411 45.2113 33.616C46.5215 33.0258 48.8858 31.5776 48.457 30.3193V30.3193ZM39.8218 14.4666C39.8099 15.1591 39.7116 15.7879 39.6074 16.4442C39.4953 17.15 39.3794 17.8798 39.3502 18.7657C39.3214 19.6278 39.4324 20.5242 39.5397 21.3911C39.7566 23.1419 39.9792 24.9444 39.1176 26.723C38.9745 26.477 38.847 26.2228 38.7358 25.9617C38.6287 25.7099 38.3961 25.3054 38.0741 24.7456C36.8213 22.5663 33.8875 17.463 35.3893 15.3806C35.8367 14.7607 36.972 14.1234 39.8218 14.4666V14.4666ZM36.3675 2.73329C40.5443 2.82274 43.8483 4.33832 46.1875 7.2377C47.9816 9.4616 46.006 19.5807 40.2866 28.3106C40.2291 28.2397 40.1713 28.1689 40.1132 28.0985L40.0407 28.0107C41.5187 25.6433 41.2297 23.3009 40.9724 21.2241C40.8667 20.3719 40.7669 19.5669 40.7923 18.8107C40.8186 18.0093 40.9278 17.3219 41.0335 16.6573C41.1633 15.8382 41.2955 14.9907 41.2591 13.9916C41.2863 13.8868 41.2972 13.763 41.283 13.616C41.19 12.658 40.0623 9.7907 37.7638 7.19554C36.5065 5.77604 34.673 4.18754 32.1695 3.11613C33.2463 2.89964 34.7188 2.69778 36.3675 2.73329V2.73329ZM12.9954 33.3108C11.8403 34.658 11.0427 34.3997 10.7803 34.315C9.07113 33.762 7.08786 30.258 5.33933 24.7016C3.82632 19.8937 2.94217 15.0591 2.87208 13.7034C2.65124 9.41584 3.72275 6.42778 6.05706 4.82199C9.85602 2.20898 16.1019 3.77299 18.6116 4.5662C18.5756 4.60076 18.538 4.63304 18.5023 4.66817C14.3839 8.70239 14.4816 15.595 14.4917 16.0163C14.4914 16.1789 14.5055 16.4091 14.5246 16.7256C14.5955 17.8849 14.7275 20.0426 14.3751 22.486C14.0477 24.7566 14.7694 26.979 16.3546 28.5835C16.5173 28.7478 16.6883 28.9042 16.867 29.0521C16.1614 29.7852 14.6278 31.4061 12.9954 33.3108V33.3108ZM17.3964 27.6152C16.1187 26.322 15.5384 24.5232 15.8041 22.6797C16.1761 20.0986 16.0388 17.8506 15.965 16.6428C15.9546 16.4738 15.9454 16.3257 15.9401 16.2089C16.5418 15.6914 19.3299 14.2425 21.3183 14.6844C22.2255 14.8859 22.7784 15.4852 23.0083 16.516C24.1978 21.8527 23.1657 24.077 22.3363 25.8645C22.1654 26.2327 22.0039 26.5808 21.8661 26.9408L21.7592 27.2192C21.4886 27.923 21.2368 28.5774 21.0808 29.1987C19.7225 29.195 18.4011 28.6321 17.3964 27.615V27.6152ZM17.6049 34.8124C17.2082 34.7163 16.8515 34.5493 16.6422 34.4109C16.817 34.3311 17.1281 34.2225 17.6677 34.1147C20.2789 33.5934 20.6822 33.2254 21.5628 32.1409C21.7647 31.8921 21.9935 31.6103 22.3105 31.2669L22.3109 31.2666C22.7829 30.7538 22.9989 30.8408 23.3904 30.9984C23.7078 31.1257 24.0169 31.5115 24.1422 31.9361C24.2016 32.1367 24.2681 32.5172 24.0502 32.8135C22.2106 35.3118 19.53 35.2797 17.6049 34.8124V34.8124ZM31.2703 47.1467C28.0759 47.8106 26.9449 46.2296 26.1995 44.4224C25.7185 43.2556 25.482 37.9943 25.6498 32.184C25.6519 32.1067 25.6406 32.032 25.6186 31.9618C25.599 31.823 25.5692 31.6858 25.5294 31.5512C25.2799 30.7058 24.672 29.9986 23.9427 29.7054C23.653 29.589 23.1212 29.3754 22.4822 29.5339C22.6185 28.9893 22.8548 28.3742 23.1111 27.7082L23.2185 27.4281C23.3395 27.1123 23.4915 26.7851 23.652 26.4388C24.5199 24.5686 25.7085 22.0071 24.4185 16.2203C23.9353 14.0528 22.3217 12.9943 19.8756 13.2402C18.4091 13.3874 17.0675 13.9613 16.3983 14.2904C16.2544 14.361 16.1228 14.4294 15.9999 14.4958C16.1866 12.312 16.8922 8.23068 19.5318 5.64843C21.1938 4.0229 23.4071 3.22 26.1038 3.2633C31.4173 3.34762 34.8247 5.99253 36.7477 8.19669C38.4048 10.0959 39.302 12.0091 39.6601 13.041C36.9671 12.7753 35.1356 13.2909 34.2072 14.5784C32.1873 17.3791 35.3122 22.8147 36.814 25.4272C37.0895 25.9059 37.3272 26.3197 37.402 26.4955C37.891 27.6452 38.5242 28.4128 38.9864 28.973C39.1282 29.1446 39.2656 29.3112 39.3702 29.4566C38.5545 29.6847 37.0895 30.2117 37.223 32.8458C37.1153 34.1675 36.3496 40.3555 35.9606 42.5418C35.4471 45.4302 34.3513 46.506 31.2703 47.1469V47.1467ZM44.6038 32.3467C43.7698 32.7221 42.374 33.0038 41.0482 33.0643C39.5838 33.1308 38.8382 32.9052 38.6628 32.7664C38.5806 31.1249 39.2104 30.9534 39.877 30.7719C39.9818 30.7434 40.084 30.7155 40.1827 30.682C40.2439 30.7305 40.3111 30.7785 40.3847 30.8256C41.5617 31.5791 43.6611 31.6604 46.6251 31.067L46.6576 31.0607C46.2578 31.4232 45.5737 31.9097 44.6038 32.3467Z" fill="var(--fill-0, white)"/>
</g>
</svg>
