<svg preserveAspectRatio="none" width="100%" height="100%" overflow="visible" style="display: block;" viewBox="0 0 50 50" fill="none" xmlns="http://www.w3.org/2000/svg">
<g id="python" clip-path="url(#clip0_0_20)">
<path id="Vector" d="M24.9328 0.000376574C22.8933 0.0100379 20.9466 0.183458 19.2327 0.486824C14.1846 1.37856 13.2687 3.24513 13.2687 6.68794V11.2341H25.1971V12.7494H8.79169C5.32521 12.7494 2.28962 14.8329 1.33992 18.7979C0.244324 23.3411 0.196017 26.1767 1.33992 30.9209C2.1877 34.4526 4.21271 36.9684 7.67967 36.9684H11.7814V31.5185C11.7814 27.581 15.1875 24.1083 19.2331 24.1083H31.148C34.4647 24.1083 37.1119 21.377 37.1119 18.0467V6.68842C37.1119 3.45526 34.3845 1.02689 31.148 0.487307C29.0978 0.146262 26.9719 -0.00880167 24.9328 0.000376574ZM18.482 3.6567C19.7138 3.6567 20.7205 4.67935 20.7205 5.93725C20.7205 7.18984 19.7143 8.20283 18.482 8.20283C17.2453 8.20283 16.2439 7.18984 16.2439 5.93725C16.2435 4.67935 17.2453 3.6567 18.482 3.6567Z" fill="url(#paint0_linear_0_20)"/>
<path id="Vector_2" d="M38.5992 12.7489V18.0462C38.5992 22.1522 35.1172 25.6086 31.1474 25.6086H19.2326C15.969 25.6086 13.2687 28.4021 13.2687 31.6706V43.0299C13.2687 46.262 16.0791 48.1639 19.2326 49.0909C23.0082 50.2005 26.6293 50.4014 31.1474 49.0909C34.1501 48.2209 37.1113 46.4712 37.1113 43.0299V38.4832H25.197V36.9674H43.0762C46.5427 36.9674 47.8354 34.5496 49.0411 30.9199C50.2864 27.1834 50.2328 23.5898 49.0411 18.7969C48.1841 15.3454 46.548 12.7484 43.0762 12.7484L38.5992 12.7489ZM31.8976 41.514C33.1347 41.514 34.1361 42.527 34.1361 43.7805C34.1361 45.0375 33.1342 46.0601 31.8976 46.0601C30.6658 46.0601 29.6596 45.0375 29.6596 43.7805C29.6596 42.527 30.6658 41.514 31.8976 41.514Z" fill="url(#paint1_linear_0_20)"/>
</g>
<defs>
<linearGradient id="paint0_linear_0_20" x1="-0.695782" y1="1.42186" x2="26.8166" y2="24.8843" gradientUnits="userSpaceOnUse">
<stop stop-color="#5A9FD4"/>
<stop offset="1" stop-color="#306998"/>
</linearGradient>
<linearGradient id="paint1_linear_0_20" x1="37.1678" y1="39.4684" x2="27.3014" y2="25.6324" gradientUnits="userSpaceOnUse">
<stop stop-color="#FFD43B"/>
<stop offset="1" stop-color="#FFE873"/>
</linearGradient>
<clipPath id="clip0_0_20">
<rect width="50" height="50" fill="white"/>
</clipPath>
</defs>
</svg>
