<svg preserveAspectRatio="none" width="100%" height="100%" overflow="visible" style="display: block;" viewBox="0 0 65 60" fill="none" xmlns="http://www.w3.org/2000/svg">
<g id="Frame">
<path id="Vector" d="M32.5 35.2898C35.5878 35.2898 38.0909 32.9215 38.0909 30.0001C38.0909 27.0786 35.5878 24.7103 32.5 24.7103C29.4122 24.7103 26.9091 27.0786 26.9091 30.0001C26.9091 32.9215 29.4122 35.2898 32.5 35.2898Z" fill="var(--fill-0, #61DAFB)"/>
<path id="Vector_2" d="M32.5 40.8375C49.0685 40.8375 62.5 35.9854 62.5 30C62.5 24.0146 49.0685 19.1625 32.5 19.1625C15.9315 19.1625 2.5 24.0146 2.5 30C2.5 35.9854 15.9315 40.8375 32.5 40.8375Z" stroke="var(--stroke-0, #61DAFB)" stroke-width="5"/>
<path id="Vector_3" d="M22.58 35.4188C30.8643 48.9946 42.0213 57.5739 47.5 54.5812C52.9786 51.5885 50.7042 38.1571 42.4199 24.5813C34.1356 11.0054 22.9786 2.42608 17.5 5.41877C12.0213 8.41147 14.2958 21.8429 22.58 35.4188Z" stroke="var(--stroke-0, #61DAFB)" stroke-width="5"/>
<path id="Vector_4" d="M22.5801 24.5812C14.2958 38.1571 12.0214 51.5885 17.5 54.5812C22.9786 57.5739 34.1356 48.9946 42.4199 35.4187C50.7042 21.8429 52.9786 8.41145 47.5 5.41876C42.0214 2.42606 30.8643 11.0054 22.5801 24.5812Z" stroke="var(--stroke-0, #61DAFB)" stroke-width="5"/>
</g>
</svg>
