<svg preserveAspectRatio="none" width="100%" height="100%" overflow="visible" style="display: block;" viewBox="0 0 50 25" fill="none" xmlns="http://www.w3.org/2000/svg">
<g id="tailwindcss">
<path id="Vector" d="M25 0C18.3331 0 14.1666 2.77784 12.4997 8.33299C15 5.55515 17.9167 4.51385 21.2498 5.20805C23.1518 5.60414 24.5111 6.75436 26.016 8.02706C28.4669 10.1003 31.3036 12.4997 37.5003 12.4997C44.1666 12.4997 48.3337 9.7219 50 4.16623C47.5003 6.94407 44.5836 7.98589 41.2498 7.29169C39.3485 6.8956 37.9892 5.74538 36.4843 4.47268C34.0334 2.39947 31.1961 0 25 0V0ZM12.4997 12.4997C5.83344 12.4997 1.66625 15.2776 0 20.8332C2.49969 18.0554 5.41641 17.0136 8.75016 17.7083C10.6515 18.1049 12.0108 19.2546 13.5157 20.5268C15.9666 22.6 18.8039 25 25 25C31.6669 25 35.8334 22.2222 37.5003 16.6665C35 19.4443 32.0833 20.4861 28.7502 19.7914C26.8482 19.3959 25.4889 18.2451 23.984 16.9729C21.5331 14.8997 18.6964 12.4997 12.4997 12.4997V12.4997Z" fill="var(--fill-0, #06B6D4)"/>
</g>
</svg>
