<svg preserveAspectRatio="none" width="100%" height="100%" overflow="visible" style="display: block;" viewBox="0 0 50 50" fill="none" xmlns="http://www.w3.org/2000/svg">
<g id="typescript">
<path id="Vector" d="M0 0H50V50H0V0Z" fill="var(--fill-0, #017ACB)"/>
<path id="Vector_2" d="M24.0078 18.5156H26.4063V22.6562H19.9219V41.0781L19.75 41.125C19.5156 41.1875 16.4297 41.1875 15.7656 41.1172L15.2344 41.0703V22.6562H8.75V18.5156L10.8047 18.4922C11.9297 18.4766 14.8203 18.4766 17.2266 18.4922C19.6328 18.5078 22.6797 18.5156 24.0078 18.5156V18.5156ZM42.3126 39.125C41.3594 40.1328 40.336 40.6953 38.6329 41.1562C37.8907 41.3594 37.7657 41.3672 36.0938 41.3594C34.4219 41.3516 34.2891 41.3516 33.4766 41.1406C31.375 40.6016 29.6797 39.5469 28.5235 38.0547C28.1953 37.6328 27.6563 36.7578 27.6563 36.6484C27.6563 36.6172 27.7344 36.5469 27.836 36.5C27.9375 36.4531 28.1485 36.3203 28.3203 36.2187C28.4922 36.1172 28.8047 35.9297 29.0157 35.8203C29.2266 35.7109 29.836 35.3516 30.3672 35.0312C30.8985 34.7109 31.3829 34.4531 31.4375 34.4531C31.4922 34.4531 31.5938 34.5625 31.6719 34.6953C32.1407 35.4844 33.2344 36.4922 34.0079 36.8359C34.4844 37.0391 35.5391 37.2656 36.0469 37.2656C36.5157 37.2656 37.375 37.0625 37.836 36.8516C38.3282 36.625 38.5782 36.3984 38.8751 35.9453C39.0782 35.625 39.1016 35.5391 39.0938 34.9297C39.0938 34.3672 39.0626 34.2109 38.9063 33.9531C38.4688 33.2344 37.875 32.8594 35.4688 31.7969C32.9844 30.6953 31.8672 30.0391 30.961 29.1562C30.2891 28.5 30.1563 28.3203 29.7344 27.5C29.1875 26.4453 29.1172 26.1016 29.1094 24.5312C29.1016 23.4297 29.125 23.0703 29.2422 22.6953C29.4063 22.1328 29.9375 21.0469 30.1797 20.7734C30.6797 20.1875 30.8594 20.0078 31.211 19.7187C32.2735 18.8437 33.9297 18.2656 35.5157 18.2109C35.6954 18.2109 36.2891 18.2422 36.8438 18.2812C38.4376 18.4141 39.5235 18.8047 40.5704 19.6406C41.3594 20.2656 42.5547 21.7344 42.4376 21.9297C42.3594 22.0469 39.2422 24.125 39.0391 24.1875C38.9141 24.2266 38.8282 24.1797 38.6563 23.9766C37.5938 22.7031 37.1641 22.4297 36.1329 22.3672C35.3985 22.3203 35.0079 22.4062 34.5157 22.7344C34 23.0781 33.75 23.6016 33.75 24.3281C33.7579 25.3906 34.1641 25.8906 35.6641 26.6328C36.6329 27.1094 37.461 27.5 37.5235 27.5C37.6172 27.5 39.6251 28.5 40.1485 28.8125C42.586 30.2422 43.5782 31.7109 43.836 34.2422C44.0235 36.1484 43.4844 37.8906 42.3126 39.125V39.125Z" fill="var(--fill-0, white)"/>
</g>
</svg>
